<svg width="16" height="16" viewBox="0 0 16 16" fill="none" xmlns="http://www.w3.org/2000/svg">
<g clip-path="url(#clip0_206_148)">
<path d="M15.8048 14.862L11.8254 10.8826C12.9098 9.55636 13.443 7.86402 13.3147 6.15567C13.1863 4.44732 12.4062 2.85365 11.1358 1.70431C9.8654 0.554968 8.20183 -0.0621104 6.48919 -0.0192892C4.77656 0.023532 3.1459 0.722977 1.93451 1.93437C0.723114 3.14576 0.0236694 4.77642 -0.0191518 6.48906C-0.0619731 8.20169 0.555106 9.86527 1.70445 11.1357C2.85379 12.4061 4.44745 13.1862 6.15581 13.3145C7.86416 13.4429 9.5565 12.9097 10.8828 11.8253L14.8621 15.8046C14.9878 15.9261 15.1562 15.9933 15.331 15.9917C15.5058 15.9902 15.673 15.9201 15.7966 15.7965C15.9203 15.6729 15.9904 15.5057 15.9919 15.3309C15.9934 15.1561 15.9262 14.9877 15.8048 14.862ZM6.66677 12C5.61193 12 4.58079 11.6872 3.70372 11.1011C2.82666 10.5151 2.14308 9.68215 1.73941 8.70761C1.33574 7.73307 1.23012 6.66071 1.43591 5.62615C1.6417 4.59158 2.14965 3.64127 2.89553 2.89539C3.64141 2.14951 4.59172 1.64156 5.62628 1.43577C6.66085 1.22999 7.7332 1.3356 8.70774 1.73927C9.68228 2.14294 10.5152 2.82652 11.1013 3.70359C11.6873 4.58065 12.0001 5.61179 12.0001 6.66663C11.9985 8.08063 11.4361 9.43626 10.4362 10.4361C9.4364 11.436 8.08077 11.9984 6.66677 12Z" fill="white"/>
</g>
<defs>
<clipPath id="clip0_206_148">
<rect width="16" height="16" fill="white"/>
</clipPath>
</defs>
</svg>
